<?xml version="1.0" encoding="utf-8"?>
<!-- Generator: Adobe Adobe Illustrator 24.2.0, SVG Export Plug-In . SVG Version: 6.00 Build 0)  -->
<svg version="1.1" id="Layer_1" xmlns="http://www.w3.org/2000/svg" xmlns:xlink="http://www.w3.org/1999/xlink" x="0px" y="0px"
	 width="166px" height="64px" viewBox="0 0 166 64" style="enable-background:new 0 0 166 64;" xml:space="preserve">
<path d="M144.75,26.2c-1.84-1.38-4.23-1.76-6.34-2.61c-7.78-2.3-16.07-1.36-23.93,0.01c-2.62,0.35-3.53,0.69-5.52,0.73
	c0.38-1.64-0.19-3.39-2.33-3.24c-2.51,0.3-4.81,1.46-7.2,2.23c-3.18,1-7.19,2.8-9.13,3.54c-1.58-0.66-3.81,0.99-5.41,1.37
	c-3.96,1.42-6.78,2.39-10.64,3.76c-1.47,0.47-2.9,1.09-4.38,1.51c0.15-0.19,0.3-0.38,0.46-0.59c0.4-0.51,0.65-1.13,0.72-1.74
	c4.51-1.52,8.95-3.22,13.19-5.39c3.65-1.83,7.08-4.09,10.18-6.74c1.94-1.72,4-3.52,5.01-5.97c1.77-5.77-6.36-5.01-9.8-4.15
	c-5.25,1.31-10.22,3.37-15.04,5.79c0.1-0.17,0.2-0.35,0.28-0.53c0.96-1.78,0.39-4.35-1.82-4.72c-4.64-0.51-9.03,1.58-13.25,3.23
	C49,16.88,39.47,23.52,30.4,30.63c9.93-5.98,20.07-11.68,31.13-15.31c2.51-0.76,4.98-1.73,7.55-2.25c0.81-0.09,1.63-0.13,2.45-0.17
	c-0.15,0.24-0.38,0.53-0.53,0.76c-4.38,4.43-9.8,8.08-15.27,11.81c-11.21,6.98-22.38,14.1-32.77,22.28
	c-2.75,2.18-4.15,3.15-7.34,5.46c-0.51,0.43-1.18,0.75-1.4,1.41c-0.55,1.15,0.41,2.59,1.69,2.56c1.59-0.26,2.83-1.65,4.22-2.42
	c3.88-2.7,7.75-5.44,11.6-8.18c21.14-4.5,41.3-8.07,61.02-10.33c15.63-2.09,31.41-2.78,47.05-4.68c1.72-0.28,3.58-0.65,4.92-1.84
	C145.63,28.79,145.78,27.1,144.75,26.2z M33.47,45.33c4.92-3.49,9.84-6.98,14.8-10.42c3.27-2.29,6.59-4.51,9.88-6.77
	c13.06-8.17,29.16-17.26,37.87-16.16c-0.19,0.41-0.47,0.82-0.69,1.11c-7.67,8.34-17.16,12.23-27.26,15.46
	c-0.8,0.07-1.58,0.28-2.49,0.38c-4.34,0.77-8.58,1.95-12.56,3.86c-1.16,0.66-2.71,0.89-3.54,1.99c-0.85,1.41,0.73,3.06,2.21,2.49
	c2.61-0.89,6.03-1.84,8.96-2.84c1.89-0.57,3.79-1.15,5.69-1.74c-0.75,1.27-1.11,2.77-0.04,3.77c-10.64,2.15-21.09,4.99-31.38,8.42
	C34.44,45.02,33.95,45.17,33.47,45.33z M133.88,28.7c-10.83,0.99-21.67,1.87-32.5,2.97c-8.15,0.89-16.3,1.83-24.41,3.03
	c0.69-0.22,1.38-0.45,2.07-0.67c3.43-1.08,6.81-2.34,10.18-3.59c1.13,0.39,2.62-0.25,3.68-0.74c1.58-0.7,1.88-0.84,4.07-1.68
	c1.9-0.68,5.78-2.07,7.96-2.83c-0.05,0.62,0.09,1.25,0.58,1.72c1.46,1.52,3.86,0.91,5.73,0.73c2.73-0.43,5.46-0.88,8.19-1.32
	c-0.15,0.02-0.31,0.04-0.46,0.06c2.14-0.31,4.29-0.57,6.45-0.65c2.93-0.07,5.86,0.02,8.76,0.43c2.04,0.32,4.05,1.02,5.98,1.74
	C138.13,28.43,136.49,28.4,133.88,28.7z"/>
<path d="M148.13,34.53c-3.28,0.05-3.28,4.94,0,5C151.41,39.48,151.4,34.59,148.13,34.53z"/>
</svg>
